<?xml version="1.0" encoding="UTF-8"?><svg xmlns="http://www.w3.org/2000/svg" viewBox="0 0 426 467"><defs><style>.d{fill:#fff;}</style></defs><g id="a"/><g id="b"><g id="c"><g><g><path class="d" d="M162.75,393H70.29c-19.49,0-35.29-15.8-35.29-35.29V111.29c0-19.49,15.8-35.29,35.29-35.29h92.46c9.66,0,17.5-7.84,17.5-17.5h0c0-9.67-7.84-17.5-17.5-17.5H70.29C31.47,41,0,72.47,0,111.29v246.42c0,38.82,31.47,70.29,70.29,70.29h92.46c9.66,0,17.5-7.84,17.5-17.5h0c0-9.67-7.84-17.5-17.5-17.5Z"/><path class="d" d="M355.71,41h-92.46c-9.66,0-17.5,7.84-17.5,17.5h0c0,9.67,7.84,17.5,17.5,17.5h92.46c19.49,0,35.29,15.8,35.29,35.29v246.42c0,19.49-15.8,35.29-35.29,35.29h-92.46c-9.66,0-17.5,7.84-17.5,17.5h0c0,9.67,7.84,17.5,17.5,17.5h92.46c38.82,0,70.29-31.47,70.29-70.29V111.29c0-38.82-31.47-70.29-70.29-70.29Z"/></g><rect class="d" x="192.19" width="41.63" height="467" rx="20.81" ry="20.81"/></g></g></g></svg>